#!OML:ASF F:\VICON\USERDATA\INSTALL\rory3\rory3.ASF
:FULLY-SPECIFIED
:DEGREES
71
root 0.3277668470102756 17.397360631460245 29.289229289992292 2.4778519554302574 2.845939419246697 0.20411491285663752
lfemur -6.455250722450955 -1.6894960724636703 -24.818052555499587
ltibia 32.79314271695623
lfoot 5.73481508950865 -10.14376848391043
ltoes -10.719759572261614
rfemur -24.971006181772083 2.3455908754753425 26.325775093580937
rtibia 52.045212189242505
rfoot 0.5136096405725944 -4.223562726513492
rtoes -4.0126307241141514
lowerback 13.356681463098695 -0.5969314148539996 -1.5191581878346818
upperback -0.45964005899518795 -0.29343061203483023 0.5425206536719538
thorax -8.234218300135122 0.24328953653473834 1.9935179681520678
lowerneck -19.005488179150866 -3.604531934518731 -2.3920539070629965
upperneck 14.256326565200531 -4.414017785777208 2.993183037524109
head 7.4636227104149615 -2.371308636694265 0.840516682806536
lclavicle 3.0724827264545893e-16 -4.3067221206564905e-16
lhumerus -37.71512368865921 -15.397854903443179 97.56576455952583
lradius 110.44355677604702
lwrist 32.222675462387116
lhand -25.945599121637688 3.275942347591817
lfingers 7.125020000000001
lthumb 0.5710118595344911 32.96901019567659
rclavicle 3.0728743657241976e-16 -4.3064985682852227e-16
rhumerus -52.03190936673399 7.239216395139697 -97.85863081131107
rradius 103.1324597772976
rwrist -19.145600889278434
rhand -18.47388558802786 37.59966949172904
rfingers 7.125020000000001
rthumb 7.848760150785295 7.685887021874038
72
root 0.36297273652173123 17.56957348771129 30.22701317309233 2.7156558069692434 2.1785696269424912 0.13534067200292998
lfemur -2.8961063598963346 -1.100932914341456 -23.931223050542517
ltibia 32.88223510682747
lfoot 7.319010150984405 -11.027735761847326
ltoes -10.26632400107943
rfemur -27.166809170314906 2.3271738648973495 25.820729112259738
rtibia 51.18439270366658
rfoot 0.016334562154294574 -4.028162023635508
rtoes -3.8401727690759264
lowerback 12.926553128713849 -0.7748803564205676 -1.5219706802918458
upperback -0.5488790705163353 -0.5193913847954905 0.7511231844321975
thorax -8.230043696203417 0.1966656659403334 2.1343575559906
lowerneck -18.864076518334333 -3.420140790839861 -2.391354123611726
upperneck 14.376501406316354 -4.269982858371292 2.89469286773991
head 7.480965228318056 -2.3056620599632773 0.8350390084652491
lclavicle 3.0724827264545893e-16 -4.3067221206564905e-16
lhumerus -37.91115343832277 -15.52378275192899 97.6142293346988
lradius 110.57510774744684
lwrist 32.285503068749186
lhand -25.935331548436817 3.276928046872351
lfingers 7.125020000000001
lthumb 0.6425768727930997 32.902696671066536
rclavicle 3.0728743657241976e-16 -4.3064985682852227e-16
rhumerus -53.29061040073872 7.206797278432637 -97.71872655603748
rradius 103.22948326807187
rwrist -19.26901943824882
rhand -18.499815180928266 37.53768335934791
rfingers 7.125020000000001
rthumb 7.8642805172092665 7.72614889968252
73
root 0.40600244526196744 17.751890871771614 31.83552158508251 2.9670045375370133 1.546703174503707 0.08905336423552956
lfemur -3.682623273459262 -1.085730380462369 -24.144638014023972
ltibia 33.73517951771257
lfoot 6.990557422155799 -11.996986371187914
ltoes -9.48420786625164
rfemur -27.964279017059717 2.3294327675043265 26.019015484087785
rtibia 50.560385800839526
rfoot -0.7943900277745296 -4.228789528927369
rtoes -3.807112424652182
lowerback 12.539332873758323 -0.9389008419980517 -1.455094441819336
upperback -0.6624766670763298 -0.7476886469748438 0.9457235485245612
thorax -8.189600216057336 0.20912408281437073 2.332693127728219
lowerneck -18.822516456959118 -3.369845742654065 -2.452637816579086
upperneck 14.435187975024999 -4.212479655132686 2.794238442964874
head 7.502937294257845 -2.2283927522736313 0.8396992542539821
lclavicle 3.0724827264545893e-16 -4.3067221206564905e-16
lhumerus -38.51770866094361 -15.696156657536568 97.68232471160839
lradius 110.71111090513955
lwrist 32.4352487648308
lhand -25.956207812454313 3.2362771421538152
lfingers 7.125020000000001
lthumb 0.6692766244859809 32.788250344224316
rclavicle 3.0728743657241976e-16 -4.3064985682852227e-16
rhumerus -54.410109571477044 7.167284212574937 -97.54281898116194
rradius 103.3267638480816
rwrist -19.376020496153856
rhand -18.471095026498595 37.58533494435906
rfingers 7.125020000000001
rthumb 7.861569346487971 7.691501924510579
74
root 0.4391454964832847 17.88519715973583 31.820770585176923 3.133560547279089 0.7521399888309962 -0.09162659038730014
lfemur -3.2858504602816954 -0.9985187986320423 -23.88306411837368
ltibia 35.412038719147596
lfoot 6.274118496315254 -12.076713224734597
ltoes -8.658326901926737
rfemur -28.475345813888957 2.30154682123144 25.89900102604677
rtibia 50.20481525414231
rfoot -1.3872711191136342 -4.387837506262835
rtoes -3.872663023738558
lowerback 12.228450021580938 -1.088504919066747 -1.3769681635733886
upperback -0.7808308094755116 -0.912886589901418 1.152377233461932
thorax -8.174727883822149 0.1930101925446222 2.4867241028185516
lowerneck -18.651498403195628 -3.247298722624229 -2.4522503284254253
upperneck 14.457098399819241 -4.204513427996902 2.713879356030951
head 7.5087469824351265 -2.1895605235051683 0.8314719247966427
lclavicle 3.0724827264545893e-16 -4.3067221206564905e-16
lhumerus -39.03931148001688 -15.93685861934387 97.76114506583473
lradius 110.82455250968651
lwrist 32.242992350771075
lhand -25.97985958643107 3.1367079318937963
lfingers 7.125020000000001
lthumb 0.7003268364249846 32.73232535855746
rclavicle 3.0728743657241976e-16 -4.3064985682852227e-16
rhumerus -55.51563014765176 7.076984799437124 -97.35000823446963
rradius 103.32537598559935
rwrist -19.377877563884113
rhand -18.515919744474346 37.524848113230384
rfingers 7.125020000000001
rthumb 7.85967073832582 7.666860405598655
75
root 0.4870876982830147 18.016142115757944 33.539795754340396 3.3596802541722197 0.40509477497022883 -0.010749053518313012
lfemur -2.058452816006815 -0.6936996097137051 -23.260540025296404
ltibia 38.42390142251071
lfoot 6.190187440689268 -11.403173119250393
ltoes -7.923370867168723
rfemur -27.691009273835448 2.558717029444367 26.341126396984862
rtibia 50.19471357917476
rfoot -1.6680938145852227 -4.359891196645316
rtoes -4.279514015124635
lowerback 12.027322586951529 -1.2010882228582482 -1.292107193083251
upperback -0.9002652669987375 -1.0321841492000725 1.3330356148502795
thorax -8.150870899835436 0.18207678042125414 2.553376683158012
lowerneck -18.686647354416625 -3.257628312595639 -2.4987386145046164
upperneck 14.424813010625053 -4.264283181293898 2.6351162527408674
head 7.519824426214766 -2.1512103992561324 0.8241885218874522
lclavicle 3.0724827264545893e-16 -4.3067221206564905e-16
lhumerus -39.58298338912928 -16.125724318096292 97.88115753613768
lradius 110.79583718907985
lwrist 32.13905454912814
lhand -25.92386257629299 3.1398991227541133
lfingers 7.125020000000001
lthumb 0.7240535702287453 32.70090805794324
rclavicle 3.0728743657241976e-16 -4.3064985682852227e-16
rhumerus -56.293863335448016 6.984300725776012 -97.07728410370241
rradius 103.2915552438801
rwrist -19.421530174013593
rhand -18.46551118906162 37.593469492235926
rfingers 7.125020000000001
rthumb 7.887030007025101 7.6869584023891395
76
root 0.517326119015241 18.081050592253245 33.69070255586157 3.409975255993316 0.059158869939374914 0.06613527527651386
lfemur -2.1263080732892075 -0.5057102557926094 -22.968693221610103
ltibia 42.786596556681545
lfoot 6.584182952341192 -10.677948465011397
ltoes -7.261041560998848
rfemur -28.378636277346253 2.475930454627791 26.151255316214083
rtibia 50.60293788690475
rfoot -2.2033507984322394 -4.50218134277069
rtoes -4.303628402556507
lowerback 11.915749504595535 -1.2776987416139662 -1.2661044554293028
upperback -1.009573820952714 -1.1648247646584424 1.456920275073505
thorax -8.135088451796742 0.20437246656290492 2.6296073365059978
lowerneck -18.6580903854774 -3.2073457479489913 -2.4953530810494717
upperneck 14.38853393691819 -4.3356292985166025 2.5939789769743187
head 7.517050738295358 -2.1408738971404104 0.8059086023804763
lclavicle 3.0724827264545893e-16 -4.3067221206564905e-16
lhumerus -40.72745864721154 -16.35708256826943 97.9674516529003
lradius 110.75171291975875
lwrist 32.01253689096114
lhand -25.92631333669794 3.083746700359789
lfingers 7.125020000000001
lthumb 0.7553046583054995 32.70243734268233
rclavicle 3.0728743657241976e-16 -4.3064985682852227e-16
rhumerus -56.96735972018227 6.830370368919835 -96.79460327928567
rradius 103.31228231138162
rwrist -19.380191209147057
rhand -18.496975092372978 37.59072588605111
rfingers 7.125020000000001
rthumb 7.891373416393976 7.700469816400454
77
root 0.550759199046251 18.130447434636878 34.885814176621366 3.405135727624341 0.04617056642399042 0.3693817358039315
lfemur -1.1761013441880905 -0.22044786226943625 -22.52907399631236
ltibia 47.727114757671515
lfoot 7.0504030198764385 -10.729061271531553
ltoes -7.269788710779967
rfemur -27.66557569075596 2.5764745680674643 26.441570677295303
rtibia 51.59018414762702
rfoot -2.688519520663945 -4.731295711086825
rtoes -4.639707005013509
lowerback 11.9240058525846 -1.2887434864425416 -1.2268097831318772
upperback -1.0136625478017256 -1.0639941784596105 1.6380505481032912
thorax -8.171263669212017 0.13535379899166178 2.44994769510312
lowerneck -18.79339248575483 -3.2675228175152338 -2.534013896628472
upperneck 14.366065415491274 -4.389283642144466 2.594350008271904
head 7.519627925656099 -2.128748566651815 0.7921638335443908
lclavicle 3.0724827264545893e-16 -4.3067221206564905e-16
lhumerus -40.54874246638663 -16.03619409661251 98.21341202216867
lradius 110.50047412383245
lwrist 32.12325394780925
lhand -25.919432184062345 3.08095566966963
lfingers 7.125020000000001
lthumb 0.826016110686 32.79579090735696
rclavicle 3.0728743657241976e-16 -4.3064985682852227e-16
rhumerus -57.413214028815375 6.618723533489374 -96.48826453996045
rradius 103.38985824437813
rwrist -19.409986900014594
rhand -18.449360138194216 37.64114511981342
rfingers 7.125020000000001
rthumb 7.838365908405525 7.652914132527183
